<mxfile host="app.diagrams.net" agent="Mozilla/5.0 (Macintosh; Intel Mac OS X 10_15_7) AppleWebKit/537.36 (KHTML, like Gecko) Chrome/128.0.0.0 Safari/537.36" version="24.7.10">
  <diagram name="Page-1" id="BXjNKRuzBvEQKTv4ajrW">
    <mxGraphModel dx="2074" dy="1081" grid="1" gridSize="10" guides="1" tooltips="1" connect="1" arrows="1" fold="1" page="1" pageScale="1" pageWidth="850" pageHeight="1100" math="0" shadow="0">
      <root>
        <mxCell id="0" />
        <mxCell id="1" parent="0" />
        <mxCell id="kt1jKGBQUiWGiP4k1NDH-44" value="" style="rounded=0;whiteSpace=wrap;html=1;dashed=1;" vertex="1" parent="1">
          <mxGeometry x="52.5" y="120" width="1095" height="830" as="geometry" />
        </mxCell>
        <mxCell id="kt1jKGBQUiWGiP4k1NDH-31" value="" style="rounded=1;whiteSpace=wrap;html=1;" vertex="1" parent="1">
          <mxGeometry x="80" y="170" width="1040" height="740" as="geometry" />
        </mxCell>
        <mxCell id="kt1jKGBQUiWGiP4k1NDH-43" value="" style="rounded=1;whiteSpace=wrap;html=1;" vertex="1" parent="1">
          <mxGeometry x="900" y="730" width="150" height="80" as="geometry" />
        </mxCell>
        <mxCell id="kt1jKGBQUiWGiP4k1NDH-42" value="" style="rounded=1;whiteSpace=wrap;html=1;" vertex="1" parent="1">
          <mxGeometry x="890" y="490" width="160" height="200" as="geometry" />
        </mxCell>
        <mxCell id="kt1jKGBQUiWGiP4k1NDH-41" value="" style="rounded=1;whiteSpace=wrap;html=1;" vertex="1" parent="1">
          <mxGeometry x="890" y="270" width="160" height="200" as="geometry" />
        </mxCell>
        <mxCell id="kt1jKGBQUiWGiP4k1NDH-1" value="" style="rounded=1;whiteSpace=wrap;html=1;fillColor=#e1d5e7;strokeColor=#9673a6;" vertex="1" parent="1">
          <mxGeometry x="110" y="200" width="730" height="670" as="geometry" />
        </mxCell>
        <mxCell id="kt1jKGBQUiWGiP4k1NDH-2" value="" style="rounded=1;whiteSpace=wrap;html=1;fillColor=#fff2cc;strokeColor=#d6b656;" vertex="1" parent="1">
          <mxGeometry x="165" y="365" width="625" height="435" as="geometry" />
        </mxCell>
        <mxCell id="kt1jKGBQUiWGiP4k1NDH-3" value="" style="rounded=1;whiteSpace=wrap;html=1;fillColor=#f8cecc;strokeColor=#b85450;" vertex="1" parent="1">
          <mxGeometry x="302.5" y="560" width="350" height="220" as="geometry" />
        </mxCell>
        <mxCell id="kt1jKGBQUiWGiP4k1NDH-4" value="&lt;font style=&quot;font-size: 17px;&quot;&gt;&lt;b&gt;Presentation&lt;/b&gt;&lt;/font&gt;" style="text;html=1;align=center;verticalAlign=middle;whiteSpace=wrap;rounded=0;" vertex="1" parent="1">
          <mxGeometry x="435" y="220" width="60" height="30" as="geometry" />
        </mxCell>
        <object label="&lt;b&gt;Views&lt;/b&gt;" id="kt1jKGBQUiWGiP4k1NDH-5">
          <mxCell style="html=1;dropTarget=0;whiteSpace=wrap;" vertex="1" parent="1">
            <mxGeometry x="165" y="270" width="160" height="60" as="geometry" />
          </mxCell>
        </object>
        <mxCell id="kt1jKGBQUiWGiP4k1NDH-6" value="" style="shape=module;jettyWidth=8;jettyHeight=4;" vertex="1" parent="kt1jKGBQUiWGiP4k1NDH-5">
          <mxGeometry x="1" width="20" height="20" relative="1" as="geometry">
            <mxPoint x="-27" y="7" as="offset" />
          </mxGeometry>
        </mxCell>
        <object label="&lt;b&gt;ViewModels&lt;/b&gt;" id="kt1jKGBQUiWGiP4k1NDH-7">
          <mxCell style="html=1;dropTarget=0;whiteSpace=wrap;" vertex="1" parent="1">
            <mxGeometry x="385" y="270" width="160" height="60" as="geometry" />
          </mxCell>
        </object>
        <mxCell id="kt1jKGBQUiWGiP4k1NDH-8" value="" style="shape=module;jettyWidth=8;jettyHeight=4;" vertex="1" parent="kt1jKGBQUiWGiP4k1NDH-7">
          <mxGeometry x="1" width="20" height="20" relative="1" as="geometry">
            <mxPoint x="-27" y="7" as="offset" />
          </mxGeometry>
        </mxCell>
        <object label="&lt;b&gt;DI&lt;/b&gt;" id="kt1jKGBQUiWGiP4k1NDH-9">
          <mxCell style="html=1;dropTarget=0;whiteSpace=wrap;" vertex="1" parent="1">
            <mxGeometry x="610" y="270" width="160" height="60" as="geometry" />
          </mxCell>
        </object>
        <mxCell id="kt1jKGBQUiWGiP4k1NDH-10" value="" style="shape=module;jettyWidth=8;jettyHeight=4;" vertex="1" parent="kt1jKGBQUiWGiP4k1NDH-9">
          <mxGeometry x="1" width="20" height="20" relative="1" as="geometry">
            <mxPoint x="-27" y="7" as="offset" />
          </mxGeometry>
        </mxCell>
        <mxCell id="kt1jKGBQUiWGiP4k1NDH-11" value="«Datasource»&lt;br&gt;&lt;b&gt;Local / remote&lt;/b&gt;" style="html=1;dropTarget=0;whiteSpace=wrap;" vertex="1" parent="1">
          <mxGeometry x="190" y="420" width="140" height="50" as="geometry" />
        </mxCell>
        <mxCell id="kt1jKGBQUiWGiP4k1NDH-12" value="" style="shape=module;jettyWidth=8;jettyHeight=4;" vertex="1" parent="kt1jKGBQUiWGiP4k1NDH-11">
          <mxGeometry x="1" width="20" height="20" relative="1" as="geometry">
            <mxPoint x="-27" y="7" as="offset" />
          </mxGeometry>
        </mxCell>
        <mxCell id="kt1jKGBQUiWGiP4k1NDH-13" value="&lt;font style=&quot;font-size: 17px;&quot;&gt;&lt;b&gt;Data&lt;/b&gt;&lt;/font&gt;" style="text;html=1;align=center;verticalAlign=middle;whiteSpace=wrap;rounded=0;" vertex="1" parent="1">
          <mxGeometry x="445" y="370" width="60" height="30" as="geometry" />
        </mxCell>
        <mxCell id="kt1jKGBQUiWGiP4k1NDH-14" value="«Api»&lt;br&gt;&lt;b&gt;Service&lt;/b&gt;" style="html=1;dropTarget=0;whiteSpace=wrap;" vertex="1" parent="1">
          <mxGeometry x="407.5" y="420" width="140" height="50" as="geometry" />
        </mxCell>
        <mxCell id="kt1jKGBQUiWGiP4k1NDH-15" value="" style="shape=module;jettyWidth=8;jettyHeight=4;" vertex="1" parent="kt1jKGBQUiWGiP4k1NDH-14">
          <mxGeometry x="1" width="20" height="20" relative="1" as="geometry">
            <mxPoint x="-27" y="7" as="offset" />
          </mxGeometry>
        </mxCell>
        <mxCell id="kt1jKGBQUiWGiP4k1NDH-16" value="«Repository»&lt;br&gt;&lt;b&gt;Impl&lt;/b&gt;" style="html=1;dropTarget=0;whiteSpace=wrap;" vertex="1" parent="1">
          <mxGeometry x="610" y="420" width="140" height="50" as="geometry" />
        </mxCell>
        <mxCell id="kt1jKGBQUiWGiP4k1NDH-17" value="" style="shape=module;jettyWidth=8;jettyHeight=4;" vertex="1" parent="kt1jKGBQUiWGiP4k1NDH-16">
          <mxGeometry x="1" width="20" height="20" relative="1" as="geometry">
            <mxPoint x="-27" y="7" as="offset" />
          </mxGeometry>
        </mxCell>
        <mxCell id="kt1jKGBQUiWGiP4k1NDH-18" value="&lt;b&gt;Model&lt;/b&gt;" style="html=1;dropTarget=0;whiteSpace=wrap;" vertex="1" parent="1">
          <mxGeometry x="267.5" y="490" width="140" height="50" as="geometry" />
        </mxCell>
        <mxCell id="kt1jKGBQUiWGiP4k1NDH-19" value="" style="shape=module;jettyWidth=8;jettyHeight=4;" vertex="1" parent="kt1jKGBQUiWGiP4k1NDH-18">
          <mxGeometry x="1" width="20" height="20" relative="1" as="geometry">
            <mxPoint x="-27" y="7" as="offset" />
          </mxGeometry>
        </mxCell>
        <mxCell id="kt1jKGBQUiWGiP4k1NDH-22" value="«Mapper»&lt;br&gt;&lt;b&gt;To Domain&lt;/b&gt;" style="html=1;dropTarget=0;whiteSpace=wrap;" vertex="1" parent="1">
          <mxGeometry x="547.5" y="490" width="140" height="50" as="geometry" />
        </mxCell>
        <mxCell id="kt1jKGBQUiWGiP4k1NDH-23" value="" style="shape=module;jettyWidth=8;jettyHeight=4;" vertex="1" parent="kt1jKGBQUiWGiP4k1NDH-22">
          <mxGeometry x="1" width="20" height="20" relative="1" as="geometry">
            <mxPoint x="-27" y="7" as="offset" />
          </mxGeometry>
        </mxCell>
        <mxCell id="kt1jKGBQUiWGiP4k1NDH-24" value="«Repository»&lt;br&gt;&lt;b&gt;Interface&lt;/b&gt;" style="html=1;dropTarget=0;whiteSpace=wrap;" vertex="1" parent="1">
          <mxGeometry x="407.5" y="600" width="140" height="50" as="geometry" />
        </mxCell>
        <mxCell id="kt1jKGBQUiWGiP4k1NDH-25" value="" style="shape=module;jettyWidth=8;jettyHeight=4;" vertex="1" parent="kt1jKGBQUiWGiP4k1NDH-24">
          <mxGeometry x="1" width="20" height="20" relative="1" as="geometry">
            <mxPoint x="-27" y="7" as="offset" />
          </mxGeometry>
        </mxCell>
        <mxCell id="kt1jKGBQUiWGiP4k1NDH-26" value="«Model»&lt;br&gt;&lt;b&gt;Domain&lt;/b&gt;" style="html=1;dropTarget=0;whiteSpace=wrap;" vertex="1" parent="1">
          <mxGeometry x="320" y="670" width="140" height="50" as="geometry" />
        </mxCell>
        <mxCell id="kt1jKGBQUiWGiP4k1NDH-27" value="" style="shape=module;jettyWidth=8;jettyHeight=4;" vertex="1" parent="kt1jKGBQUiWGiP4k1NDH-26">
          <mxGeometry x="1" width="20" height="20" relative="1" as="geometry">
            <mxPoint x="-27" y="7" as="offset" />
          </mxGeometry>
        </mxCell>
        <mxCell id="kt1jKGBQUiWGiP4k1NDH-28" value="&lt;b&gt;Usecase&lt;/b&gt;" style="html=1;dropTarget=0;whiteSpace=wrap;" vertex="1" parent="1">
          <mxGeometry x="495" y="670" width="140" height="50" as="geometry" />
        </mxCell>
        <mxCell id="kt1jKGBQUiWGiP4k1NDH-29" value="" style="shape=module;jettyWidth=8;jettyHeight=4;" vertex="1" parent="kt1jKGBQUiWGiP4k1NDH-28">
          <mxGeometry x="1" width="20" height="20" relative="1" as="geometry">
            <mxPoint x="-27" y="7" as="offset" />
          </mxGeometry>
        </mxCell>
        <mxCell id="kt1jKGBQUiWGiP4k1NDH-30" value="&lt;font style=&quot;font-size: 17px;&quot;&gt;&lt;b&gt;Domain&lt;/b&gt;&lt;/font&gt;" style="text;html=1;align=center;verticalAlign=middle;whiteSpace=wrap;rounded=0;" vertex="1" parent="1">
          <mxGeometry x="447.5" y="560" width="60" height="30" as="geometry" />
        </mxCell>
        <mxCell id="kt1jKGBQUiWGiP4k1NDH-32" value="&lt;font style=&quot;font-size: 17px;&quot;&gt;&lt;b&gt;Dependencies&lt;/b&gt;&lt;/font&gt;" style="text;html=1;align=center;verticalAlign=middle;whiteSpace=wrap;rounded=0;" vertex="1" parent="1">
          <mxGeometry x="940" y="240" width="60" height="30" as="geometry" />
        </mxCell>
        <mxCell id="kt1jKGBQUiWGiP4k1NDH-36" value="" style="edgeStyle=orthogonalEdgeStyle;rounded=0;orthogonalLoop=1;jettySize=auto;html=1;" edge="1" parent="1" source="kt1jKGBQUiWGiP4k1NDH-33" target="kt1jKGBQUiWGiP4k1NDH-35">
          <mxGeometry relative="1" as="geometry" />
        </mxCell>
        <mxCell id="kt1jKGBQUiWGiP4k1NDH-33" value="Presentation" style="rounded=1;whiteSpace=wrap;html=1;fillColor=#e1d5e7;strokeColor=#9673a6;" vertex="1" parent="1">
          <mxGeometry x="910" y="290" width="120" height="60" as="geometry" />
        </mxCell>
        <mxCell id="kt1jKGBQUiWGiP4k1NDH-35" value="Data" style="rounded=1;whiteSpace=wrap;html=1;fillColor=#fff2cc;strokeColor=#d6b656;" vertex="1" parent="1">
          <mxGeometry x="910" y="390" width="120" height="60" as="geometry" />
        </mxCell>
        <mxCell id="kt1jKGBQUiWGiP4k1NDH-39" style="edgeStyle=orthogonalEdgeStyle;rounded=0;orthogonalLoop=1;jettySize=auto;html=1;exitX=0.5;exitY=1;exitDx=0;exitDy=0;entryX=0.5;entryY=0;entryDx=0;entryDy=0;" edge="1" parent="1" source="kt1jKGBQUiWGiP4k1NDH-37" target="kt1jKGBQUiWGiP4k1NDH-38">
          <mxGeometry relative="1" as="geometry" />
        </mxCell>
        <mxCell id="kt1jKGBQUiWGiP4k1NDH-37" value="Data" style="rounded=1;whiteSpace=wrap;html=1;fillColor=#fff2cc;strokeColor=#d6b656;" vertex="1" parent="1">
          <mxGeometry x="910" y="510" width="120" height="60" as="geometry" />
        </mxCell>
        <mxCell id="kt1jKGBQUiWGiP4k1NDH-38" value="Domain" style="rounded=1;whiteSpace=wrap;html=1;fillColor=#f8cecc;strokeColor=#b85450;" vertex="1" parent="1">
          <mxGeometry x="910" y="610" width="120" height="60" as="geometry" />
        </mxCell>
        <mxCell id="kt1jKGBQUiWGiP4k1NDH-40" value="Domain" style="rounded=1;whiteSpace=wrap;html=1;fillColor=#f8cecc;strokeColor=#b85450;" vertex="1" parent="1">
          <mxGeometry x="915" y="740" width="120" height="60" as="geometry" />
        </mxCell>
      </root>
    </mxGraphModel>
  </diagram>
</mxfile>
